<svg width="1452" height="332" viewBox="0 0 1452 332" fill="none" xmlns="http://www.w3.org/2000/svg">
<path d="M367.392 170.375C393.738 159.1 380.496 99.453 333.64 92.6003C352.219 50.6899 280.022 10.9935 238.527 2.54037C200.334 -5.23285 159.85 4.42953 137.011 37.1108C96.8818 15.0184 40.6403 42.0984 42.9626 96.1861C1.17249 112.154 -10.9687 155.773 10.2332 182.432C2.1652 191.775 -0.331617 205.787 4.19875 218.416C15.4796 249.876 54.1772 256.807 89.1146 247.975C92.2853 285.222 139.779 314.763 197.958 281.63C226.067 285.908 233.822 332 266.274 332C280.226 332 294.383 319.077 295.737 304.8C295.779 304.357 295.722 303.91 295.57 303.492C295.418 303.073 295.175 302.694 294.858 302.381C267.622 275.422 275.901 253.149 314.207 261.331C318.341 262.221 322.618 263.136 326.992 263.515C346.654 265.194 366.785 255.128 377.181 238.402C387.578 221.677 387.698 199.127 377.482 182.281C374.74 177.825 371.338 173.81 367.392 170.375ZM327.516 257.517C319.231 256.801 310.994 253.895 302.186 253.221C278.662 251.284 266.822 269.008 275.78 287.966C279.083 294.945 284.54 300.6 289.57 305.6C287.705 316.544 276.352 326.242 265.534 325.966C239.14 324.768 231.511 287.033 205.111 277.299C213.089 272.173 220.195 266.68 226.247 261.752C226.865 261.248 227.258 260.519 227.339 259.725C227.419 258.931 227.181 258.138 226.677 257.52C226.173 256.901 225.444 256.509 224.65 256.428C223.856 256.347 223.063 256.585 222.445 257.089C215.219 262.98 206.441 269.694 196.502 275.518C195.75 275.626 195.067 276.018 194.595 276.613C139.454 307.79 96.942 279.308 95.0107 246.428C102.266 244.222 109.297 241.333 116.008 237.801C119.546 235.93 116.652 230.611 113.186 232.488C99.7969 239.561 85.1401 243.914 70.0606 245.297C14.9682 250.225 -3.00291 208.278 14.3124 186.884C16.725 189.2 24.9494 195.517 27.9877 195.517C31.2306 195.517 32.1751 191.029 29.1669 189.742C24.6305 187.804 20.5334 184.766 17.0559 181.03C16.6287 180.133 16.5324 180.212 16.0632 179.887C-3.57447 157.126 5.76303 117.881 43.5522 102.407C44.6203 110.483 47.2918 118.264 51.4097 125.294C51.6111 125.634 51.8776 125.931 52.1939 126.168C52.5102 126.405 52.8701 126.578 53.2531 126.676C53.6361 126.774 54.0346 126.795 54.426 126.739C54.8173 126.683 55.1938 126.551 55.5339 126.349C55.8741 126.148 56.1712 125.881 56.4083 125.565C56.6455 125.249 56.818 124.889 56.916 124.506C57.0141 124.123 57.0357 123.724 56.9798 123.333C56.9238 122.942 56.7913 122.565 56.5898 122.225C43.6003 100.337 47.3305 70.2071 65.2595 52.1458C82.7733 34.4936 111.893 30.3664 133.738 42.1646C130.454 47.7298 121.122 66.6033 127.457 67.8607C128.24 68.0027 129.047 67.833 129.706 67.3877C130.364 66.9425 130.823 66.2571 130.983 65.4782C140.489 16.6549 209.906 -23.9139 299.383 36.0158C333.135 58.6255 332.75 75.0985 327.425 92.0348C321.409 91.8121 303.697 92.8891 305.712 98.7009C306.254 100.265 307.956 101.089 309.539 100.56C323.635 95.6807 340.12 97.7263 352.58 105.909C380.093 123.976 380.611 164.918 361.298 165.736C348.525 157.313 324.231 152.374 324.802 159.864C324.83 160.259 324.935 160.645 325.113 160.999C325.291 161.353 325.537 161.668 325.838 161.926C326.138 162.185 326.487 162.38 326.864 162.502C327.241 162.624 327.638 162.67 328.033 162.638C345.439 161.272 363.271 170.459 372.344 185.41C392.463 218.572 366.027 260.892 327.516 257.517Z" fill="#085571"/>
<path d="M203.457 69.1844C215.899 36.07 228.912 50.2868 234.929 53.2589C257.701 64.5277 271.106 32.057 261.317 31.3651C260.922 31.3776 260.533 31.4677 260.173 31.6305C259.812 31.7933 259.488 32.0255 259.217 32.3138C258.947 32.6021 258.736 32.9409 258.597 33.3108C258.457 33.6807 258.392 34.0745 258.405 34.4696C258.736 44.7998 247.503 54.5885 234.207 45.8226C223.828 39.006 214.389 41.587 207.548 48.9632C202.645 54.2456 200.082 61.0622 197.819 67.0786C196.424 70.8208 202.067 72.8664 203.457 69.1844ZM171.78 81.9512C174.061 74.5751 178.146 67.7585 181.046 60.1898C186.418 46.1776 184.373 30.589 178.356 33.0858C177.992 33.2372 177.661 33.459 177.383 33.7387C177.104 34.0183 176.884 34.3501 176.734 34.7152C176.584 35.0802 176.508 35.4713 176.51 35.8659C176.511 36.2605 176.591 36.6508 176.744 37.0145C182.532 50.8704 170.318 66.3206 166.041 80.1764C164.855 83.9848 170.613 85.7296 171.78 81.9512Z" fill="#085571"/>
<path d="M228.702 64.4856C226.626 61.0683 221.512 64.2209 223.558 67.6021C255.036 119.728 274.487 60.3523 293.733 73.9735C294.828 74.7556 296.2 76.1093 296.519 78.1429C297.133 82.0476 303.077 81.1571 302.463 77.2164C301.194 69.1423 292.019 64.8285 284.161 66.2123C264.283 69.7801 252.551 103.947 228.702 64.4856ZM286.387 139.378C286.779 139.324 287.156 139.194 287.497 138.994C287.838 138.794 288.136 138.529 288.375 138.214C288.614 137.899 288.788 137.54 288.888 137.157C288.987 136.775 289.011 136.376 288.956 135.985C288.529 132.874 291.327 129.926 294.161 128.988C298.017 127.706 302.349 128.928 305.315 130.179C311.331 132.718 337.828 152.638 348.314 124.836C349.722 121.106 344.085 118.994 342.683 122.707C339.543 131.027 332.275 137.032 319.869 131.003C318.208 130.179 316.573 129.304 314.965 128.38C283.505 110.752 278.085 140.305 286.387 139.378ZM305.261 157.247C305.857 153.306 299.912 152.416 299.317 156.344C297.115 170.82 310.634 192.016 345.703 186.517C349.65 185.897 348.669 179.935 344.771 180.573C313.082 185.542 303.739 167.264 305.261 157.247Z" fill="#085571"/>
<path d="M355.745 198.261C332.407 218.699 295.358 203.706 292.837 172.763C292.76 171.973 292.379 171.244 291.773 170.73C291.168 170.217 290.386 169.96 289.594 170.014C282.242 170.615 290.352 200.824 314.171 210.48C329.272 216.587 347.544 213.44 359.709 202.791C362.7 200.168 358.747 195.632 355.745 198.261ZM324.676 237.416C312.21 241.026 296.874 234.408 293.805 216.262C293.126 212.261 292.355 207.731 289.016 204.422C285.058 200.505 278.494 199.627 272.297 202.202C263.212 205.974 257.201 215.672 248.736 216.082C245.494 216.13 241.691 214.126 241.384 211.082C241.349 210.688 241.235 210.304 241.05 209.954C240.865 209.605 240.611 209.295 240.305 209.045C239.998 208.794 239.645 208.608 239.265 208.495C238.885 208.383 238.487 208.348 238.093 208.393C231.68 209.03 237.311 222.856 249.025 222.086C263.892 221.388 283.259 190.109 287.873 217.267C291.585 239.136 310.633 247.746 326.348 243.198C327.115 242.976 327.762 242.458 328.148 241.759C328.533 241.061 328.625 240.237 328.403 239.47C328.181 238.704 327.664 238.056 326.965 237.671C326.266 237.286 325.442 237.194 324.676 237.416ZM263.374 235.803C229.911 249.003 214.214 229.468 214.744 216.731C214.776 215.934 214.491 215.156 213.951 214.568C213.411 213.98 212.659 213.631 211.862 213.597C210.219 213.741 208.799 214.818 208.727 216.479C208.119 230.924 221.374 246.218 242.744 246.218C248.977 246.218 269.571 243.306 267.267 237.488C267.124 237.12 266.91 236.784 266.636 236.5C266.363 236.215 266.035 235.988 265.673 235.831C265.311 235.675 264.921 235.591 264.526 235.587C264.132 235.582 263.74 235.656 263.374 235.803ZM178.326 226.586C178.026 226.329 177.678 226.134 177.302 226.011C176.926 225.888 176.53 225.841 176.136 225.871C175.742 225.902 175.357 226.009 175.005 226.188C174.652 226.367 174.339 226.614 174.082 226.914C173.562 227.52 173.305 228.308 173.366 229.104C173.428 229.9 173.803 230.639 174.409 231.159C179.547 235.563 185.371 240.562 188.458 246.813C191.003 251.976 191.743 259.689 187.327 264.418C184.631 267.299 188.999 271.439 191.725 268.521C198.12 261.668 197.398 251.35 193.848 244.148C190.215 236.79 183.897 231.363 178.326 226.586Z" fill="#085571"/>
<path d="M252.803 195.349C281.598 185.199 281.134 152.813 256.359 148.499C254.151 148.114 252.063 147.747 250.312 146.881C242.689 143.12 240.463 128.585 255.643 119.584C261.118 116.335 267.549 114.578 273.776 112.882C274.545 112.671 275.2 112.163 275.595 111.471C275.991 110.779 276.096 109.957 275.888 109.188C275.676 108.419 275.168 107.766 274.476 107.371C273.784 106.975 272.964 106.869 272.194 107.076C263.043 109.573 242.87 114.464 238.851 131.617C237.19 138.698 238.731 151.531 255.324 154.419C274.54 157.8 273.078 181.83 250.812 189.669C234.736 195.337 215.814 190.843 198.583 197.118C167.719 208.338 151.24 253.678 118.679 246.332C118.294 246.242 117.894 246.23 117.504 246.296C117.114 246.362 116.741 246.504 116.406 246.715C116.072 246.926 115.782 247.201 115.555 247.525C115.327 247.848 115.166 248.214 115.081 248.6C114.161 252.697 120.484 253.01 124.689 253.01C158.526 253.01 172.869 212.881 200.641 202.773C216.674 196.931 235.548 201.432 252.803 195.349Z" fill="#085571"/>
<path d="M126.194 214.583C157.726 201.847 138.805 159.81 215.959 172.089C219.912 172.691 220.797 166.771 216.898 166.145C137.758 153.631 150.362 198.351 123.944 209C116.718 211.93 97.4418 211.232 109.162 184.339C109.32 183.977 109.405 183.587 109.412 183.192C109.42 182.796 109.349 182.404 109.205 182.036C109.06 181.668 108.845 181.332 108.571 181.047C108.296 180.763 107.969 180.535 107.607 180.377C107.244 180.219 106.854 180.134 106.459 180.126C106.064 180.119 105.671 180.19 105.304 180.334C104.936 180.478 104.6 180.694 104.315 180.968C104.031 181.242 103.803 181.57 103.645 181.932C99.8002 190.74 96.8762 199.975 101.485 207.815C106.454 216.274 117.934 217.916 126.194 214.583Z" fill="#085571"/>
<path d="M160.801 137.447C168.712 126.665 166.234 105.229 189.848 94.5917C199.811 90.2011 211.106 89.9329 221.266 93.8456C224.918 95.3197 227.198 89.7244 223.474 88.2504C217.701 85.9864 211.535 84.8959 205.336 85.0426C199.136 85.1893 193.029 86.5702 187.369 89.1047C160.662 101.138 162.756 124.602 155.945 133.885C143.137 151.351 94.2771 137.579 76.0172 190.638C73.8393 196.973 73.0932 202.46 73.743 207.424C74.9643 216.852 81.7328 223.042 84.5605 223.042C87.5928 223.042 88.7239 219.017 86.1128 217.453C80.8243 214.283 77.0099 206.257 81.7088 192.599C98.7653 143.024 145.417 158.42 160.801 137.447Z" fill="#085571"/>
<path d="M231.373 104.453C231.433 100.476 225.417 100.403 225.357 104.356C225.315 106.931 222.607 109.067 220.11 109.964C213.938 112.184 201.087 110.078 189.734 122.953C177.274 137.08 184.216 158.107 217.174 151.116C223.119 149.865 228.148 159.244 228.696 165.393C228.834 166.945 230.14 168.245 231.957 168.124C239.002 167.499 230.182 142.23 215.917 145.226C188.981 150.954 185.474 136.875 194.24 126.93C207.62 111.763 231.115 121.178 231.373 104.453ZM115.888 98.6046C121.369 100.379 124.732 103.58 130.785 104.025C148.683 105.259 151.096 80.6155 143.341 82.6069C142.567 82.7989 141.902 83.2901 141.49 83.9725C141.078 84.655 140.954 85.473 141.145 86.2468C141.495 87.7048 141.499 89.2242 141.159 90.6843C140.819 92.1444 140.142 93.505 139.183 94.6578C132.812 102.226 124.419 95.0549 117.759 92.8709C90.3662 83.9726 72.9968 125.847 103.963 122.099C106.346 121.822 108.596 121.551 110.497 121.996C114.053 122.827 116.646 127.002 115.81 130.558C114.961 134.12 110.774 136.683 107.218 135.828C102.904 134.866 101.106 142.007 108.62 142.007C126.435 142.007 128.113 113.188 103.259 116.118C82.8517 118.579 98.1093 92.7927 115.888 98.6046Z" fill="#085571"/>
<path d="M84.572 71.8197C107.765 54.1735 103.849 87.0593 127.355 83.3471C136.596 81.837 140.128 76.1094 142.745 70.0929C147.594 58.9686 154.092 62.3859 150.963 67.1569C148.406 71.0676 142.209 71.6332 144.682 75.622C147.095 79.5267 153.737 73.9013 155.999 70.4539C160.006 64.3232 156.853 56.4838 149.417 56.6583C135.128 57.2539 140.82 75.0625 126.392 77.4089C114.438 79.3522 113.072 68.1677 104.763 63.3666C96.7914 58.776 87.2253 62.2475 80.9321 67.0306C70.4755 74.9843 64.1703 88.0821 64.4712 101.222C64.8141 116.311 78.1706 142.747 62.5519 152.837C59.1947 154.991 62.5038 160.057 65.8128 157.891C95.4197 138.776 49.394 98.5867 84.572 71.8197ZM58.6472 190.265C58.9442 189.525 58.9355 188.698 58.623 187.965C58.3106 187.232 57.7199 186.652 56.9807 186.354C49.2795 183.237 43.0004 177.385 39.3475 169.923C35.6947 162.461 34.9252 153.913 37.1866 145.918C38.2696 142.116 32.4938 140.419 31.3988 144.269C22.4644 175.639 55.4525 198.219 58.6472 190.265ZM61.9262 226.592C46.6926 224.432 29.2871 215.179 26.8444 207.472C25.6592 203.724 19.9014 205.469 21.1108 209.295C24.871 221.141 46.5001 230.485 61.0779 232.549C61.8681 232.659 62.6698 232.451 63.3079 231.972C63.9459 231.493 64.3684 230.781 64.4832 229.992C64.5931 229.202 64.3858 228.401 63.9066 227.764C63.4274 227.127 62.7153 226.706 61.9262 226.592Z" fill="#085571"/>
<path d="M412.6 166V82H448C456.96 82 464.84 83.76 471.64 87.28C478.52 90.8 483.84 95.72 487.6 102.04C491.44 108.36 493.36 115.68 493.36 124C493.36 132.32 491.44 139.64 487.6 145.96C483.84 152.28 478.52 157.2 471.64 160.72C464.84 164.24 456.96 166 448 166H412.6ZM424.6 155.56H447.28C454.24 155.56 460.24 154.24 465.28 151.6C470.4 148.96 474.36 145.28 477.16 140.56C479.96 135.76 481.36 130.24 481.36 124C481.36 117.68 479.96 112.16 477.16 107.44C474.36 102.72 470.4 99.04 465.28 96.4C460.24 93.76 454.24 92.44 447.28 92.44H424.6V155.56ZM549.541 166V152.56L548.941 150.04V127.12C548.941 122.24 547.501 118.48 544.621 115.84C541.821 113.12 537.581 111.76 531.901 111.76C528.141 111.76 524.461 112.4 520.861 113.68C517.261 114.88 514.221 116.52 511.741 118.6L506.941 109.96C510.221 107.32 514.141 105.32 518.701 103.96C523.341 102.52 528.181 101.8 533.221 101.8C541.941 101.8 548.661 103.92 553.381 108.16C558.101 112.4 560.461 118.88 560.461 127.6V166H549.541ZM528.661 166.72C523.941 166.72 519.781 165.92 516.181 164.32C512.661 162.72 509.941 160.52 508.021 157.72C506.101 154.84 505.141 151.6 505.141 148C505.141 144.56 505.941 141.44 507.541 138.64C509.221 135.84 511.901 133.6 515.581 131.92C519.341 130.24 524.381 129.4 530.701 129.4H550.861V137.68H531.181C525.421 137.68 521.541 138.64 519.541 140.56C517.541 142.48 516.541 144.8 516.541 147.52C516.541 150.64 517.781 153.16 520.261 155.08C522.741 156.92 526.181 157.84 530.581 157.84C534.901 157.84 538.661 156.88 541.861 154.96C545.141 153.04 547.501 150.24 548.941 146.56L551.221 154.48C549.701 158.24 547.021 161.24 543.181 163.48C539.341 165.64 534.501 166.72 528.661 166.72ZM615.739 101.8C620.939 101.8 625.499 102.8 629.419 104.8C633.419 106.8 636.539 109.84 638.779 113.92C641.019 118 642.139 123.16 642.139 129.4V166H630.619V130.72C630.619 124.56 629.099 119.92 626.059 116.8C623.099 113.68 618.899 112.12 613.459 112.12C609.379 112.12 605.819 112.92 602.779 114.52C599.739 116.12 597.379 118.48 595.699 121.6C594.099 124.72 593.299 128.6 593.299 133.24V166H581.779V102.4H592.819V119.56L591.019 115C593.099 110.84 596.299 107.6 600.619 105.28C604.939 102.96 609.979 101.8 615.739 101.8ZM663.459 166V102.4H674.979V166H663.459ZM669.219 90.16C666.979 90.16 665.099 89.44 663.579 88C662.139 86.56 661.419 84.8 661.419 82.72C661.419 80.56 662.139 78.76 663.579 77.32C665.099 75.88 666.979 75.16 669.219 75.16C671.459 75.16 673.299 75.88 674.739 77.32C676.259 78.68 677.019 80.4 677.019 82.48C677.019 84.64 676.299 86.48 674.859 88C673.419 89.44 671.539 90.16 669.219 90.16ZM725.295 166.72C718.495 166.72 712.495 165.32 707.295 162.52C702.175 159.72 698.175 155.88 695.295 151C692.495 146.12 691.095 140.52 691.095 134.2C691.095 127.88 692.455 122.28 695.175 117.4C697.975 112.52 701.775 108.72 706.575 106C711.455 103.2 716.935 101.8 723.015 101.8C729.175 101.8 734.615 103.16 739.335 105.88C744.055 108.6 747.735 112.44 750.375 117.4C753.095 122.28 754.455 128 754.455 134.56C754.455 135.04 754.415 135.6 754.335 136.24C754.335 136.88 754.295 137.48 754.215 138.04H700.095V129.76H748.215L743.535 132.64C743.615 128.56 742.775 124.92 741.015 121.72C739.255 118.52 736.815 116.04 733.695 114.28C730.655 112.44 727.095 111.52 723.015 111.52C719.015 111.52 715.455 112.44 712.335 114.28C709.215 116.04 706.775 118.56 705.015 121.84C703.255 125.04 702.375 128.72 702.375 132.88V134.8C702.375 139.04 703.335 142.84 705.255 146.2C707.255 149.48 710.015 152.04 713.535 153.88C717.055 155.72 721.095 156.64 725.655 156.64C729.415 156.64 732.815 156 735.855 154.72C738.975 153.44 741.695 151.52 744.015 148.96L750.375 156.4C747.495 159.76 743.895 162.32 739.575 164.08C735.335 165.84 730.575 166.72 725.295 166.72ZM770.451 166V76.96H781.971V166H770.451ZM843.447 166V152.56L842.847 150.04V127.12C842.847 122.24 841.407 118.48 838.527 115.84C835.727 113.12 831.487 111.76 825.807 111.76C822.047 111.76 818.367 112.4 814.767 113.68C811.167 114.88 808.127 116.52 805.647 118.6L800.847 109.96C804.127 107.32 808.047 105.32 812.607 103.96C817.247 102.52 822.087 101.8 827.127 101.8C835.847 101.8 842.567 103.92 847.287 108.16C852.007 112.4 854.367 118.88 854.367 127.6V166H843.447ZM822.567 166.72C817.847 166.72 813.687 165.92 810.087 164.32C806.567 162.72 803.847 160.52 801.927 157.72C800.007 154.84 799.047 151.6 799.047 148C799.047 144.56 799.847 141.44 801.447 138.64C803.127 135.84 805.807 133.6 809.487 131.92C813.247 130.24 818.287 129.4 824.607 129.4H844.767V137.68H825.087C819.327 137.68 815.447 138.64 813.447 140.56C811.447 142.48 810.447 144.8 810.447 147.52C810.447 150.64 811.687 153.16 814.167 155.08C816.647 156.92 820.087 157.84 824.487 157.84C828.807 157.84 832.567 156.88 835.767 154.96C839.047 153.04 841.407 150.24 842.847 146.56L845.127 154.48C843.607 158.24 840.927 161.24 837.087 163.48C833.247 165.64 828.407 166.72 822.567 166.72ZM896.872 166L934.912 82H946.792L984.952 166H972.352L938.392 88.72H943.192L909.232 166H896.872ZM913.072 145L916.312 135.4H963.592L967.072 145H913.072ZM1029.76 101.8C1034.96 101.8 1039.52 102.8 1043.44 104.8C1047.44 106.8 1050.56 109.84 1052.8 113.92C1055.04 118 1056.16 123.16 1056.16 129.4V166H1044.64V130.72C1044.64 124.56 1043.12 119.92 1040.08 116.8C1037.12 113.68 1032.92 112.12 1027.48 112.12C1023.4 112.12 1019.84 112.92 1016.8 114.52C1013.76 116.12 1011.4 118.48 1009.72 121.6C1008.12 124.72 1007.32 128.6 1007.32 133.24V166H995.803V102.4H1006.84V119.56L1005.04 115C1007.12 110.84 1010.32 107.6 1014.64 105.28C1018.96 102.96 1024 101.8 1029.76 101.8ZM1103.76 166.72C1097.6 166.72 1092.08 165.36 1087.2 162.64C1082.4 159.92 1078.6 156.12 1075.8 151.24C1073 146.36 1071.6 140.68 1071.6 134.2C1071.6 127.72 1073 122.08 1075.8 117.28C1078.6 112.4 1082.4 108.6 1087.2 105.88C1092.08 103.16 1097.6 101.8 1103.76 101.8C1109.12 101.8 1113.96 103 1118.28 105.4C1122.6 107.8 1126.04 111.4 1128.6 116.2C1131.24 121 1132.56 127 1132.56 134.2C1132.56 141.4 1131.28 147.4 1128.72 152.2C1126.24 157 1122.84 160.64 1118.52 163.12C1114.2 165.52 1109.28 166.72 1103.76 166.72ZM1104.72 156.64C1108.72 156.64 1112.32 155.72 1115.52 153.88C1118.8 152.04 1121.36 149.44 1123.2 146.08C1125.12 142.64 1126.08 138.68 1126.08 134.2C1126.08 129.64 1125.12 125.72 1123.2 122.44C1121.36 119.08 1118.8 116.48 1115.52 114.64C1112.32 112.8 1108.72 111.88 1104.72 111.88C1100.64 111.88 1097 112.8 1093.8 114.64C1090.6 116.48 1088.04 119.08 1086.12 122.44C1084.2 125.72 1083.24 129.64 1083.24 134.2C1083.24 138.68 1084.2 142.64 1086.12 146.08C1088.04 149.44 1090.6 152.04 1093.8 153.88C1097 155.72 1100.64 156.64 1104.72 156.64ZM1126.44 166V148.84L1127.16 134.08L1125.96 119.32V76.96H1137.48V166H1126.44ZM1159.28 166V102.4H1170.32V119.68L1169.24 115.36C1171 110.96 1173.96 107.6 1178.12 105.28C1182.28 102.96 1187.4 101.8 1193.48 101.8V112.96C1193 112.88 1192.52 112.84 1192.04 112.84C1191.64 112.84 1191.24 112.84 1190.84 112.84C1184.68 112.84 1179.8 114.68 1176.2 118.36C1172.6 122.04 1170.8 127.36 1170.8 134.32V166H1159.28ZM1235.41 166.72C1228.61 166.72 1222.61 165.32 1217.41 162.52C1212.29 159.72 1208.29 155.88 1205.41 151C1202.61 146.12 1201.21 140.52 1201.21 134.2C1201.21 127.88 1202.57 122.28 1205.29 117.4C1208.09 112.52 1211.89 108.72 1216.69 106C1221.57 103.2 1227.05 101.8 1233.13 101.8C1239.29 101.8 1244.73 103.16 1249.45 105.88C1254.17 108.6 1257.85 112.44 1260.49 117.4C1263.21 122.28 1264.57 128 1264.57 134.56C1264.57 135.04 1264.53 135.6 1264.45 136.24C1264.45 136.88 1264.41 137.48 1264.33 138.04H1210.21V129.76H1258.33L1253.65 132.64C1253.73 128.56 1252.89 124.92 1251.13 121.72C1249.37 118.52 1246.93 116.04 1243.81 114.28C1240.77 112.44 1237.21 111.52 1233.13 111.52C1229.13 111.52 1225.57 112.44 1222.45 114.28C1219.33 116.04 1216.89 118.56 1215.13 121.84C1213.37 125.04 1212.49 128.72 1212.49 132.88V134.8C1212.49 139.04 1213.45 142.84 1215.37 146.2C1217.37 149.48 1220.13 152.04 1223.65 153.88C1227.17 155.72 1231.21 156.64 1235.77 156.64C1239.53 156.64 1242.93 156 1245.97 154.72C1249.09 153.44 1251.81 151.52 1254.13 148.96L1260.49 156.4C1257.61 159.76 1254.01 162.32 1249.69 164.08C1245.45 165.84 1240.69 166.72 1235.41 166.72ZM1307.81 166.72C1301.41 166.72 1295.73 165.32 1290.77 162.52C1285.81 159.72 1281.89 155.88 1279.01 151C1276.13 146.04 1274.69 140.44 1274.69 134.2C1274.69 127.88 1276.13 122.28 1279.01 117.4C1281.89 112.52 1285.81 108.72 1290.77 106C1295.73 103.2 1301.41 101.8 1307.81 101.8C1314.13 101.8 1319.77 103.2 1324.73 106C1329.77 108.72 1333.69 112.52 1336.49 117.4C1339.37 122.2 1340.81 127.8 1340.81 134.2C1340.81 140.52 1339.37 146.12 1336.49 151C1333.69 155.88 1329.77 159.72 1324.73 162.52C1319.77 165.32 1314.13 166.72 1307.81 166.72ZM1307.81 156.64C1311.89 156.64 1315.53 155.72 1318.73 153.88C1322.01 152.04 1324.57 149.44 1326.41 146.08C1328.25 142.64 1329.17 138.68 1329.17 134.2C1329.17 129.64 1328.25 125.72 1326.41 122.44C1324.57 119.08 1322.01 116.48 1318.73 114.64C1315.53 112.8 1311.89 111.88 1307.81 111.88C1303.73 111.88 1300.09 112.8 1296.89 114.64C1293.69 116.48 1291.13 119.08 1289.21 122.44C1287.29 125.72 1286.33 129.64 1286.33 134.2C1286.33 138.68 1287.29 142.64 1289.21 146.08C1291.13 149.44 1293.69 152.04 1296.89 153.88C1300.09 155.72 1303.73 156.64 1307.81 156.64ZM1356.74 166V76.96H1368.26V166H1356.74ZM1429.74 166V152.56L1429.14 150.04V127.12C1429.14 122.24 1427.7 118.48 1424.82 115.84C1422.02 113.12 1417.78 111.76 1412.1 111.76C1408.34 111.76 1404.66 112.4 1401.06 113.68C1397.46 114.88 1394.42 116.52 1391.94 118.6L1387.14 109.96C1390.42 107.32 1394.34 105.32 1398.9 103.96C1403.54 102.52 1408.38 101.8 1413.42 101.8C1422.14 101.8 1428.86 103.92 1433.58 108.16C1438.3 112.4 1440.66 118.88 1440.66 127.6V166H1429.74ZM1408.86 166.72C1404.14 166.72 1399.98 165.92 1396.38 164.32C1392.86 162.72 1390.14 160.52 1388.22 157.72C1386.3 154.84 1385.34 151.6 1385.34 148C1385.34 144.56 1386.14 141.44 1387.74 138.64C1389.42 135.84 1392.1 133.6 1395.78 131.92C1399.54 130.24 1404.58 129.4 1410.9 129.4H1431.06V137.68H1411.38C1405.62 137.68 1401.74 138.64 1399.74 140.56C1397.74 142.48 1396.74 144.8 1396.74 147.52C1396.74 150.64 1397.98 153.16 1400.46 155.08C1402.94 156.92 1406.38 157.84 1410.78 157.84C1415.1 157.84 1418.86 156.88 1422.06 154.96C1425.34 153.04 1427.7 150.24 1429.14 146.56L1431.42 154.48C1429.9 158.24 1427.22 161.24 1423.38 163.48C1419.54 165.64 1414.7 166.72 1408.86 166.72Z" fill="#085571"/>
<path d="M412.51 253V209.6H429.436C433.239 209.6 436.483 210.199 439.17 211.398C441.857 212.597 443.923 214.333 445.37 216.606C446.817 218.879 447.54 221.587 447.54 224.728C447.54 227.869 446.817 230.577 445.37 232.85C443.923 235.082 441.857 236.818 439.17 238.058C436.483 239.257 433.239 239.856 429.436 239.856H415.92L418.71 236.942V253H412.51ZM418.71 237.562L415.92 234.462H429.25C433.218 234.462 436.215 233.615 438.24 231.92C440.307 230.225 441.34 227.828 441.34 224.728C441.34 221.628 440.307 219.231 438.24 217.536C436.215 215.841 433.218 214.994 429.25 214.994H415.92L418.71 211.894V237.562ZM469.902 253.496C466.595 253.496 463.433 253 460.416 252.008C457.399 250.975 455.022 249.652 453.286 248.04L455.58 243.204C457.233 244.651 459.341 245.849 461.904 246.8C464.467 247.751 467.133 248.226 469.902 248.226C472.423 248.226 474.469 247.937 476.04 247.358C477.611 246.779 478.768 245.994 479.512 245.002C480.256 243.969 480.628 242.811 480.628 241.53C480.628 240.042 480.132 238.843 479.14 237.934C478.189 237.025 476.929 236.301 475.358 235.764C473.829 235.185 472.134 234.689 470.274 234.276C468.414 233.863 466.533 233.387 464.632 232.85C462.772 232.271 461.057 231.548 459.486 230.68C457.957 229.812 456.717 228.655 455.766 227.208C454.815 225.72 454.34 223.819 454.34 221.504C454.34 219.272 454.919 217.226 456.076 215.366C457.275 213.465 459.093 211.956 461.532 210.84C464.012 209.683 467.153 209.104 470.956 209.104C473.477 209.104 475.978 209.435 478.458 210.096C480.938 210.757 483.087 211.708 484.906 212.948L482.86 217.908C481 216.668 479.037 215.779 476.97 215.242C474.903 214.663 472.899 214.374 470.956 214.374C468.517 214.374 466.513 214.684 464.942 215.304C463.371 215.924 462.214 216.751 461.47 217.784C460.767 218.817 460.416 219.975 460.416 221.256C460.416 222.785 460.891 224.005 461.842 224.914C462.834 225.823 464.095 226.547 465.624 227.084C467.195 227.621 468.91 228.117 470.77 228.572C472.63 228.985 474.49 229.461 476.35 229.998C478.251 230.535 479.967 231.238 481.496 232.106C483.067 232.974 484.327 234.131 485.278 235.578C486.229 237.025 486.704 238.885 486.704 241.158C486.704 243.349 486.105 245.395 484.906 247.296C483.707 249.156 481.847 250.665 479.326 251.822C476.846 252.938 473.705 253.496 469.902 253.496ZM495.762 253V209.6H501.962V253H495.762ZM534.361 253.496C531.055 253.496 527.996 252.959 525.185 251.884C522.416 250.768 519.998 249.218 517.931 247.234C515.906 245.209 514.315 242.853 513.157 240.166C512 237.479 511.421 234.524 511.421 231.3C511.421 228.076 512 225.121 513.157 222.434C514.315 219.747 515.927 217.412 517.993 215.428C520.06 213.403 522.478 211.853 525.247 210.778C528.058 209.662 531.117 209.104 534.423 209.104C537.771 209.104 540.851 209.683 543.661 210.84C546.513 211.956 548.931 213.63 550.915 215.862L546.885 219.768C545.232 218.032 543.372 216.751 541.305 215.924C539.239 215.056 537.027 214.622 534.671 214.622C532.233 214.622 529.959 215.035 527.851 215.862C525.785 216.689 523.987 217.846 522.457 219.334C520.928 220.822 519.729 222.599 518.861 224.666C518.035 226.691 517.621 228.903 517.621 231.3C517.621 233.697 518.035 235.929 518.861 237.996C519.729 240.021 520.928 241.778 522.457 243.266C523.987 244.754 525.785 245.911 527.851 246.738C529.959 247.565 532.233 247.978 534.671 247.978C537.027 247.978 539.239 247.565 541.305 246.738C543.372 245.87 545.232 244.547 546.885 242.77L550.915 246.676C548.931 248.908 546.513 250.603 543.661 251.76C540.851 252.917 537.751 253.496 534.361 253.496ZM578.444 253.496C575.137 253.496 572.058 252.938 569.206 251.822C566.395 250.706 563.956 249.156 561.89 247.172C559.823 245.147 558.211 242.791 557.054 240.104C555.896 237.417 555.318 234.483 555.318 231.3C555.318 228.117 555.896 225.183 557.054 222.496C558.211 219.809 559.823 217.474 561.89 215.49C563.956 213.465 566.395 211.894 569.206 210.778C572.016 209.662 575.096 209.104 578.444 209.104C581.75 209.104 584.788 209.662 587.558 210.778C590.368 211.853 592.807 213.403 594.874 215.428C596.982 217.412 598.594 219.747 599.71 222.434C600.867 225.121 601.446 228.076 601.446 231.3C601.446 234.524 600.867 237.479 599.71 240.166C598.594 242.853 596.982 245.209 594.874 247.234C592.807 249.218 590.368 250.768 587.558 251.884C584.788 252.959 581.75 253.496 578.444 253.496ZM578.444 247.978C580.841 247.978 583.052 247.565 585.078 246.738C587.144 245.911 588.922 244.754 590.41 243.266C591.939 241.737 593.117 239.959 593.944 237.934C594.812 235.909 595.246 233.697 595.246 231.3C595.246 228.903 594.812 226.691 593.944 224.666C593.117 222.641 591.939 220.884 590.41 219.396C588.922 217.867 587.144 216.689 585.078 215.862C583.052 215.035 580.841 214.622 578.444 214.622C576.005 214.622 573.752 215.035 571.686 215.862C569.66 216.689 567.883 217.867 566.354 219.396C564.824 220.884 563.626 222.641 562.758 224.666C561.931 226.691 561.518 228.903 561.518 231.3C561.518 233.697 561.931 235.909 562.758 237.934C563.626 239.959 564.824 241.737 566.354 243.266C567.883 244.754 569.66 245.911 571.686 246.738C573.752 247.565 576.005 247.978 578.444 247.978ZM573.794 206.066L582.226 198.006H589.79L579.374 206.066H573.794ZM610.922 253V209.6H617.122V247.606H640.62V253H610.922ZM666.54 253.496C663.233 253.496 660.154 252.938 657.302 251.822C654.491 250.706 652.052 249.156 649.986 247.172C647.919 245.147 646.307 242.791 645.15 240.104C643.992 237.417 643.414 234.483 643.414 231.3C643.414 228.117 643.992 225.183 645.15 222.496C646.307 219.809 647.919 217.474 649.986 215.49C652.052 213.465 654.491 211.894 657.302 210.778C660.112 209.662 663.192 209.104 666.54 209.104C669.846 209.104 672.884 209.662 675.654 210.778C678.464 211.853 680.903 213.403 682.97 215.428C685.078 217.412 686.69 219.747 687.806 222.434C688.963 225.121 689.542 228.076 689.542 231.3C689.542 234.524 688.963 237.479 687.806 240.166C686.69 242.853 685.078 245.209 682.97 247.234C680.903 249.218 678.464 250.768 675.654 251.884C672.884 252.959 669.846 253.496 666.54 253.496ZM666.54 247.978C668.937 247.978 671.148 247.565 673.173 246.738C675.24 245.911 677.018 244.754 678.506 243.266C680.035 241.737 681.213 239.959 682.04 237.934C682.908 235.909 683.342 233.697 683.342 231.3C683.342 228.903 682.908 226.691 682.04 224.666C681.213 222.641 680.035 220.884 678.506 219.396C677.018 217.867 675.24 216.689 673.173 215.862C671.148 215.035 668.937 214.622 666.54 214.622C664.101 214.622 661.848 215.035 659.782 215.862C657.756 216.689 655.979 217.867 654.45 219.396C652.92 220.884 651.722 222.641 650.854 224.666C650.027 226.691 649.614 228.903 649.614 231.3C649.614 233.697 650.027 235.909 650.854 237.934C651.722 239.959 652.92 241.737 654.45 243.266C655.979 244.754 657.756 245.911 659.782 246.738C661.848 247.565 664.101 247.978 666.54 247.978ZM718.61 253.496C715.262 253.496 712.182 252.959 709.372 251.884C706.561 250.768 704.122 249.218 702.056 247.234C699.989 245.209 698.377 242.853 697.22 240.166C696.062 237.479 695.484 234.524 695.484 231.3C695.484 228.076 696.062 225.121 697.22 222.434C698.377 219.747 699.989 217.412 702.056 215.428C704.164 213.403 706.623 211.853 709.434 210.778C712.244 209.662 715.344 209.104 718.734 209.104C722.164 209.104 725.306 209.662 728.158 210.778C731.01 211.894 733.428 213.568 735.412 215.8L731.568 219.644C729.79 217.908 727.848 216.647 725.74 215.862C723.673 215.035 721.42 214.622 718.982 214.622C716.502 214.622 714.187 215.035 712.038 215.862C709.93 216.689 708.09 217.846 706.52 219.334C704.99 220.822 703.792 222.599 702.924 224.666C702.097 226.691 701.684 228.903 701.684 231.3C701.684 233.656 702.097 235.867 702.924 237.934C703.792 239.959 704.99 241.737 706.52 243.266C708.09 244.754 709.93 245.911 712.038 246.738C714.146 247.565 716.44 247.978 718.92 247.978C721.234 247.978 723.446 247.627 725.554 246.924C727.703 246.18 729.687 244.961 731.506 243.266L735.04 247.978C732.89 249.797 730.369 251.181 727.476 252.132C724.624 253.041 721.668 253.496 718.61 253.496ZM729.088 247.172V231.052H735.04V247.978L729.088 247.172ZM740.338 253L759.992 209.6H766.13L785.846 253H779.336L761.79 213.072H764.27L746.724 253H740.338ZM748.708 242.15L750.382 237.19H774.81L776.608 242.15H748.708Z" fill="#085571"/>
</svg>
